<svg width="75" height="34" viewBox="0 0 75 34" fill="none" xmlns="http://www.w3.org/2000/svg">
<path d="M0.193255 12.4249C0.193164 12.0921 0.325526 11.7725 0.56203 11.5345C0.798535 11.2965 1.1204 11.1589 1.45878 11.1511H8.67027C13.7826 11.1511 17.1473 13.827 17.1473 18.211V18.2703C17.1473 23.069 13.0695 25.5573 8.24843 25.5573H2.75444V32.2913C2.77019 32.466 2.74878 32.642 2.69159 32.8082C2.63439 32.9743 2.54265 33.1269 2.4222 33.2563C2.30175 33.3856 2.15523 33.489 1.99196 33.5596C1.82869 33.6303 1.65224 33.6668 1.47384 33.6668C1.29544 33.6668 1.119 33.6303 0.955733 33.5596C0.792463 33.489 0.645943 33.3856 0.525494 33.2563C0.405045 33.1269 0.313297 32.9743 0.256098 32.8082C0.1989 32.642 0.177502 32.466 0.193255 32.2913V12.4249ZM8.34887 23.2863C12.0952 23.2863 14.556 21.3115 14.556 18.3493V18.29C14.556 15.1106 12.1354 13.4616 8.52966 13.4616H2.80466V23.2468L8.34887 23.2863Z" fill="#283645"/>
<path d="M22.0186 12.2668C22.0028 12.0921 22.0242 11.9161 22.0814 11.75C22.1386 11.5839 22.2304 11.4313 22.3508 11.3019C22.4713 11.1725 22.6178 11.0692 22.781 10.9985C22.9443 10.9279 23.1208 10.8914 23.2992 10.8914C23.4776 10.8914 23.654 10.9279 23.8173 10.9985C23.9806 11.0692 24.1271 11.1725 24.2475 11.3019C24.368 11.4313 24.4597 11.5839 24.5169 11.75C24.5741 11.9161 24.5955 12.0921 24.5798 12.2668V32.2913C24.5955 32.466 24.5741 32.642 24.5169 32.8081C24.4597 32.9742 24.368 33.1268 24.2475 33.2562C24.1271 33.3856 23.9806 33.4889 23.8173 33.5596C23.654 33.6303 23.4776 33.6668 23.2992 33.6668C23.1208 33.6668 22.9443 33.6303 22.781 33.5596C22.6178 33.4889 22.4713 33.3856 22.3508 33.2562C22.2304 33.1268 22.1386 32.9742 22.0814 32.8081C22.0242 32.642 22.0028 32.466 22.0186 32.2913V12.2668Z" fill="#283645"/>
<path d="M31.1987 12.2966C31.2065 11.9699 31.3426 11.6589 31.5786 11.4288C31.8145 11.1987 32.1319 11.0673 32.4643 11.0623H32.8158C33.0768 11.0676 33.3322 11.1372 33.5586 11.2649C33.785 11.3926 33.9751 11.5742 34.1115 11.793L47.8615 29.0231V12.2373C47.8615 11.9126 47.9927 11.6012 48.2263 11.3716C48.4599 11.1419 48.7766 11.0129 49.1069 11.0129C49.4373 11.0129 49.754 11.1419 49.9876 11.3716C50.2212 11.6012 50.3524 11.9126 50.3524 12.2373V32.3309C50.3579 32.4837 50.3316 32.636 50.2753 32.7785C50.2189 32.9209 50.1336 33.0507 50.0246 33.1597C49.9156 33.2687 49.7851 33.3548 49.6412 33.4126C49.4972 33.4704 49.3428 33.4988 49.1873 33.496H49.0567C48.79 33.4779 48.5313 33.3989 48.3011 33.2652C48.0709 33.1315 47.8757 32.9468 47.7309 32.7259L33.6695 15.0909V32.3309C33.6673 32.6491 33.5411 32.9544 33.317 33.184C33.0928 33.4136 32.7876 33.55 32.4643 33.5651C32.1357 33.5599 31.8225 33.4273 31.593 33.1961C31.3635 32.9649 31.2362 32.6539 31.2389 32.3309V12.2966H31.1987Z" fill="#283645"/>
<path d="M56.7403 12.2668C56.7245 12.0921 56.7459 11.9161 56.8031 11.75C56.8603 11.5839 56.952 11.4313 57.0725 11.3019C57.1929 11.1725 57.3395 11.0692 57.5027 10.9985C57.666 10.9279 57.8425 10.8914 58.0209 10.8914C58.1993 10.8914 58.3757 10.9279 58.539 10.9985C58.7022 11.0692 58.8487 11.1725 58.9692 11.3019C59.0896 11.4313 59.1814 11.5839 59.2386 11.75C59.2958 11.9161 59.3172 12.0921 59.3014 12.2668V24.4415L72.1978 11.4374C72.4623 11.1683 72.8218 11.0093 73.2021 10.9931C73.5309 11.0057 73.8422 11.1417 74.072 11.3731C74.3018 11.6046 74.4326 11.9138 74.4375 12.2372C74.4304 12.4054 74.3895 12.5705 74.3171 12.723C74.2447 12.8756 74.1423 13.0125 74.0157 13.1259L65.9806 20.9461L74.6485 31.373C74.875 31.631 74.9998 31.9604 75 32.3012C74.9961 32.4719 74.9579 32.6402 74.8875 32.7963C74.8171 32.9524 74.7159 33.0933 74.5899 33.2108C74.4638 33.3283 74.3153 33.4201 74.153 33.4809C73.9907 33.5417 73.8177 33.5703 73.6441 33.565C73.4414 33.5595 73.2432 33.5043 73.0678 33.4042C72.8924 33.3042 72.7452 33.1626 72.6397 32.9923L64.1928 22.6345L59.3014 27.4333V32.2715C59.3014 32.4362 59.2684 32.5993 59.2043 32.7514C59.1402 32.9036 59.0463 33.0418 58.9278 33.1583C58.8094 33.2747 58.6688 33.3671 58.514 33.4301C58.3592 33.4931 58.1934 33.5255 58.0259 33.5255C57.8584 33.5255 57.6925 33.4931 57.5377 33.4301C57.383 33.3671 57.2423 33.2747 57.1239 33.1583C57.0055 33.0418 56.9115 32.9036 56.8474 32.7514C56.7833 32.5993 56.7503 32.4362 56.7503 32.2715V12.2668H56.7403Z" fill="#283645"/>
<path d="M26.9401 3.74553C25.9749 3.74553 25.0491 3.36926 24.3656 2.69922C23.6822 2.02917 23.2969 1.12004 23.2942 0.171143C23.2942 1.11913 22.9111 2.02829 22.2293 2.69862C21.5474 3.36894 20.6226 3.74553 19.6583 3.74553C20.6235 3.74814 21.5483 4.12692 22.2299 4.79882C22.9115 5.47071 23.2942 6.38089 23.2942 7.32979C23.2969 6.37998 23.6818 5.46983 24.365 4.79821C25.0482 4.1266 25.974 3.74813 26.9401 3.74553Z" fill="#D22856"/>
</svg>
